# xmcd
#
# Track frame offsets:
#	150
#	28460
#	54537
#	69783
#	95566
#	124518
#	137867
#	153822
#	169351
#	183583
#	205712
#	221382
#	242815
#	269856
#	291969
#	318256
#	334246
#
# Disc length: 4787 seconds
#
# Revision: 1
# Processed by: cddbd v1.5.2PL0 Copyright (c) Steve Scherf et al.
# Submitted via: audiograbber 1.83.01
#
DISCID=0812b111
DTITLE=Various Artist - Trance Parade Vol. 2 - CD 1
DYEAR=2005
DGENRE=Trance
TTITLE0=Rave Allstars - Hardcore Vibes (Club Mix)
TTITLE1=CJ Stone feat. Rename - Call my name (Heart of Stone Mix)
TTITLE2=The Real Booty Babes - Airport (The Real Booty Babes Radio Edit)
TTITLE3=DJ Dean - Ballanation.04 (DJ Dean's New CLub Mix)
TTITLE4=Jan Wayne - Mad World (Club Mix)
TTITLE5=Patrick Bunton - Here I am (Radio Mix)
TTITLE6=DJ Yanny - Take me to the Top (Vocal Radio Edit)
TTITLE7=DJ Freaky Baresi - Party People (Mike Nero Short Cut)
TTITLE8=Jens O. and 666 - Supadupafly 2005 (Radio Edit)
TTITLE9=Oktane - Change the world (2005 RedoMix - TP Edition)
TTITLE10=Diego - Soccer Rocker (The Real Booty Babes Rmx Edit)
TTITLE11=Enjoy vs. Punisher - Open your eyes
TTITLE12=P-Hole - Fortune
TTITLE13=Tunnel Allstars - Das Boot (Hard Club Cut)
TTITLE14=Observer vs. Spacecase - TomTom
TTITLE15=Andy Jay Powell - Into your heart (Para X vs. van Roetzel Radio)
TTITLE16=A.U.R.A. - Sansibar
EXTD=
EXTT0=
EXTT1=
EXTT2=
EXTT3=
EXTT4=
EXTT5=
EXTT6=
EXTT7=
EXTT8=
EXTT9=
EXTT10=
EXTT11=
EXTT12=
EXTT13=
EXTT14=
EXTT15=
EXTT16=
PLAYORDER=
